# Blender 4.3.2
# www.blender.org
mtllib cortina_esquerda.mtl
o cortina-esquerda
v -0.086030 -0.000623 10.501956
v 14.943944 -0.000623 10.501956
v -0.086030 10.995810 10.501956
v 14.943944 10.995810 10.501956
v 0.741310 -0.000623 9.879039
v 1.487535 -0.000623 10.501956
v 2.233760 -0.000623 9.879039
v 2.979985 -0.000623 10.501956
v 3.726210 -0.000623 9.879039
v 4.472435 -0.000623 10.501956
v 5.218660 -0.000623 9.879039
v 5.964885 -0.000623 10.501956
v 6.711110 -0.000623 9.879039
v 7.457335 -0.000623 10.501956
v 8.203561 -0.000623 9.879039
v 8.949785 -0.000623 10.501956
v 9.696011 -0.000623 9.879039
v 10.442236 -0.000623 10.501956
v 11.188461 -0.000623 9.879039
v 11.934686 -0.000623 10.501956
v 12.680911 -0.000623 9.879039
v 13.427135 -0.000623 10.501956
v 14.173361 -0.000623 9.879039
v 14.173361 10.995810 9.879039
v 13.427136 10.995810 10.501956
v 12.680911 10.995810 9.879039
v 11.934687 10.995810 10.501956
v 11.188461 10.995810 9.879039
v 10.442236 10.995810 10.501956
v 9.696011 10.995810 9.879039
v 8.949785 10.995810 10.501956
v 8.203561 10.995810 9.879039
v 7.457335 10.995810 10.501956
v 6.711110 10.995810 9.879039
v 5.964885 10.995810 10.501956
v 5.218660 10.995810 9.879039
v 4.472435 10.995810 10.501956
v 3.726210 10.995810 9.879039
v 2.979985 10.995810 10.501956
v 2.233760 10.995810 9.879039
v 1.487535 10.995810 10.501956
v 0.741310 10.995810 9.879039
v 0.741310 0.000000 9.879039
v 0.741310 2.000000 9.879039
v -0.086030 0.000000 10.501956
v -0.086030 2.000000 10.501956
v 1.487535 0.000000 10.501956
v 1.487535 2.000000 10.501956
v 2.233760 0.000000 9.879039
v 2.233760 2.000000 9.879039
v 2.979985 0.000000 10.501956
v 2.979985 2.000000 10.501956
v 3.726210 0.000000 9.879039
v 3.726210 2.000000 9.879039
v 4.472435 0.000000 10.501956
v 4.472435 2.000000 10.501956
v 5.218660 0.000000 9.879039
v 5.218660 2.000000 9.879039
v 5.964885 0.000000 10.501956
v 5.964885 2.000000 10.501956
v 6.711110 0.000000 9.879039
v 6.711110 2.000000 9.879039
v 7.457335 0.000000 10.501956
v 7.457335 2.000000 10.501956
v 8.203561 0.000000 9.879039
v 8.203561 2.000000 9.879039
v 8.949785 0.000000 10.501956
v 8.949785 2.000000 10.501956
v 9.696011 0.000000 9.879039
v 9.696011 2.000000 9.879039
v 9.941992 0.000000 10.084373
v 9.941992 2.000000 10.084373
vn -0.6287 -0.0000 0.7777
vn 0.6017 -0.0000 0.7987
vn 0.6015 -0.0000 0.7989
vn -0.6411 -0.0000 0.7675
vn -0.6408 -0.0000 0.7677
vn 0.6411 -0.0000 0.7675
vn 0.6408 -0.0000 0.7677
vn 0.6403 -0.0000 0.7681
vn -0.6403 -0.0000 0.7681
vn 0.6010 -0.0000 0.7993
vn -0.6411 -0.0000 0.7674
vn -0.6411 0.0002 0.7675
vt 1.000000 0.000000
vt 0.950000 1.000000
vt 0.950000 0.000000
vt 0.000000 0.000000
vt 0.050000 0.000057
vt 0.000000 0.000057
vt 0.050000 1.000000
vt 0.000000 0.181934
vt 0.050000 0.181934
vt 0.050000 0.000000
vt 0.100000 0.000057
vt 0.050000 0.000057
vt 0.100000 0.181934
vt 0.050000 0.181934
vt 0.100000 0.000000
vt 0.150000 0.000057
vt 0.100000 0.000057
vt 0.150000 1.000000
vt 0.100000 0.181934
vt 0.150000 0.181934
vt 0.150000 0.000000
vt 0.200000 0.000057
vt 0.150000 0.000057
vt 0.200000 1.000000
vt 0.150000 0.181934
vt 0.200000 0.181934
vt 0.200000 0.000000
vt 0.250000 0.000057
vt 0.200000 0.000057
vt 0.250000 1.000000
vt 0.200000 0.181934
vt 0.250000 0.181934
vt 0.250000 0.000000
vt 0.300000 0.000057
vt 0.250000 0.000057
vt 0.300000 0.181934
vt 0.250000 0.181934
vt 0.300000 0.000000
vt 0.350000 0.000057
vt 0.300000 0.000057
vt 0.350000 1.000000
vt 0.300000 0.181934
vt 0.350000 0.181934
vt 0.350000 0.000000
vt 0.400000 0.000057
vt 0.350000 0.000057
vt 0.400000 0.181934
vt 0.350000 0.181934
vt 0.400000 0.000000
vt 0.450000 0.000057
vt 0.400000 0.000057
vt 0.450000 1.000000
vt 0.400000 0.181934
vt 0.450000 0.181934
vt 0.450000 0.000000
vt 0.500000 0.000057
vt 0.450000 0.000057
vt 0.500000 1.000000
vt 0.450000 0.181934
vt 0.500000 0.181934
vt 0.500000 0.000000
vt 0.550000 0.000057
vt 0.500000 0.000057
vt 0.550000 1.000000
vt 0.500000 0.181934
vt 0.550000 0.181934
vt 0.550000 0.000000
vt 0.600000 0.000057
vt 0.550000 0.000057
vt 0.600000 1.000000
vt 0.550000 0.181934
vt 0.600000 0.181934
vt 0.600000 0.000000
vt 0.650000 0.000057
vt 0.600000 0.000057
vt 0.650000 0.181934
vt 0.600000 0.181934
vt 0.700000 0.000000
vt 0.666482 0.181934
vt 0.666482 0.000057
vt 0.750000 0.000000
vt 0.700000 1.000000
vt 0.800000 0.000000
vt 0.750000 1.000000
vt 0.850000 0.000000
vt 0.800000 1.000000
vt 0.900000 0.000000
vt 0.850000 1.000000
vt 0.900000 1.000000
vt 1.000000 1.000000
vt 0.000000 1.000000
vt 0.100000 1.000000
vt 0.300000 1.000000
vt 0.400000 1.000000
vt 0.650000 0.000000
vt 0.650000 1.000000
vt 0.650000 0.000057
vt 0.650000 0.181934
s 0
f 2/1/1 24/2/1 23/3/1
f 1/4/2 43/5/2 45/6/2
f 42/7/3 46/8/3 44/9/3
f 5/10/4 47/11/4 43/12/4
f 48/13/5 42/7/5 44/14/5
f 6/15/6 49/16/6 47/17/6
f 40/18/7 48/19/7 50/20/7
f 7/21/4 51/22/4 49/23/4
f 39/24/5 50/25/5 52/26/5
f 8/27/6 53/28/6 51/29/6
f 38/30/7 52/31/7 54/32/7
f 9/33/4 55/34/4 53/35/4
f 56/36/5 38/30/5 54/37/5
f 10/38/8 57/39/8 55/40/8
f 36/41/7 56/42/7 58/43/7
f 11/44/9 59/45/9 57/46/9
f 60/47/5 36/41/5 58/48/5
f 12/49/8 61/50/8 59/51/8
f 34/52/7 60/53/7 62/54/7
f 13/55/9 63/56/9 61/57/9
f 33/58/5 62/59/5 64/60/5
f 14/61/8 65/62/8 63/63/8
f 32/64/7 64/65/7 66/66/7
f 15/67/9 67/68/9 65/69/9
f 31/70/5 66/71/5 68/72/5
f 16/73/8 69/74/8 67/75/8
f 70/76/7 31/70/7 68/77/7
f 18/78/5 72/79/5 71/80/5
f 19/81/7 29/82/7 18/78/7
f 20/83/5 28/84/5 19/81/5
f 21/85/7 27/86/7 20/83/7
f 22/87/5 26/88/5 21/85/5
f 23/3/7 25/89/7 22/87/7
f 2/1/1 4/90/1 24/2/1
f 1/4/10 5/10/10 43/5/10
f 42/7/3 3/91/3 46/8/3
f 5/10/4 6/15/4 47/11/4
f 48/13/5 41/92/5 42/7/5
f 6/15/6 7/21/6 49/16/6
f 40/18/7 41/92/7 48/19/7
f 7/21/4 8/27/4 51/22/4
f 39/24/5 40/18/5 50/25/5
f 8/27/6 9/33/6 53/28/6
f 38/30/7 39/24/7 52/31/7
f 9/33/4 10/38/4 55/34/4
f 56/36/5 37/93/5 38/30/5
f 10/38/6 11/44/6 57/39/6
f 36/41/7 37/93/7 56/42/7
f 11/44/4 12/49/4 59/45/4
f 60/47/5 35/94/5 36/41/5
f 12/49/6 13/55/6 61/50/6
f 34/52/7 35/94/7 60/53/7
f 13/55/4 14/61/4 63/56/4
f 33/58/5 34/52/5 62/59/5
f 14/61/6 15/67/6 65/62/6
f 32/64/7 33/58/7 64/65/7
f 15/67/4 16/73/4 67/68/4
f 31/70/5 32/64/5 66/71/5
f 16/73/6 17/95/6 69/74/6
f 70/76/7 30/96/7 31/70/7
f 71/80/11 69/97/11 17/95/11
f 18/78/5 29/82/5 30/96/5
f 30/96/5 70/98/5 72/79/5
f 71/80/12 17/95/12 18/78/12
f 18/78/5 30/96/5 72/79/5
f 19/81/7 28/84/7 29/82/7
f 20/83/5 27/86/5 28/84/5
f 21/85/7 26/88/7 27/86/7
f 22/87/5 25/89/5 26/88/5
f 23/3/7 24/2/7 25/89/7
