# Blender 4.4.3
# www.blender.org
mtllib cortina_direita3.mtl
o cortina-direita
v -14.923749 -0.003478 10.502000
v -0.053916 -0.003478 10.502000
v -14.923749 10.996305 10.502000
v -0.053916 10.996305 10.502000
v -14.182334 -0.003478 9.863665
v -13.440919 -0.003478 10.502000
v -12.699504 -0.003478 9.863665
v -11.958089 -0.003478 10.502000
v -11.216674 -0.003478 9.863665
v -10.475259 -0.003478 10.502000
v -9.733844 -0.003478 9.863665
v -8.992429 -0.003478 10.502000
v -8.251014 -0.003478 9.863665
v -7.509598 -0.003478 10.502000
v -6.768184 -0.003478 9.863665
v -6.026769 -0.003478 10.502000
v -5.285355 -0.003478 9.863665
v -4.543940 -0.003478 10.502000
v -3.802525 -0.003478 9.863665
v -3.061110 -0.003478 10.502000
v -2.319695 -0.003478 9.863665
v -1.578281 -0.003478 10.502000
v -0.836866 -0.003478 9.863665
v -0.836866 10.996305 9.863665
v -1.578281 10.996305 10.502000
v -2.319696 10.996305 9.863665
v -3.061111 10.996305 10.502000
v -3.802526 10.996305 9.863665
v -4.543941 10.996305 10.502000
v -5.285356 10.996305 9.863665
v -6.026771 10.996305 10.502000
v -6.768186 10.996305 9.863665
v -7.509601 10.996305 10.502000
v -8.251016 10.996305 9.863665
v -8.992431 10.996305 10.502000
v -9.733846 10.996305 9.863665
v -10.475261 10.996305 10.502000
v -11.216676 10.996305 9.863665
v -11.958091 10.996305 10.502000
v -12.699505 10.996305 9.863665
v -13.440920 10.996305 10.502000
v -14.182335 10.996305 9.863665
vn -0.6319 -0.0000 0.7751
vn 0.6525 -0.0000 0.7578
vn -0.6525 -0.0000 0.7578
vt 1.000000 0.000000
vt 0.950000 1.000000
vt 0.950000 0.000000
vt 0.050000 0.000000
vt 0.000000 1.000000
vt 0.000000 0.000000
vt 0.100000 0.000000
vt 0.050000 1.000000
vt 0.150000 0.000000
vt 0.100000 1.000000
vt 0.200000 0.000000
vt 0.150000 1.000000
vt 0.250000 0.000000
vt 0.200000 1.000000
vt 0.300000 0.000000
vt 0.250000 1.000000
vt 0.350000 0.000000
vt 0.300000 1.000000
vt 0.400000 0.000000
vt 0.350000 1.000000
vt 0.450000 0.000000
vt 0.400000 1.000000
vt 0.500000 0.000000
vt 0.450000 1.000000
vt 0.550000 0.000000
vt 0.500000 1.000000
vt 0.600000 0.000000
vt 0.550000 1.000000
vt 0.650000 0.000000
vt 0.600000 1.000000
vt 0.700000 0.000000
vt 0.650000 1.000000
vt 0.750000 0.000000
vt 0.700000 1.000000
vt 0.800000 0.000000
vt 0.750000 1.000000
vt 0.850000 0.000000
vt 0.800000 1.000000
vt 0.900000 0.000000
vt 0.850000 1.000000
vt 0.900000 1.000000
vt 1.000000 1.000000
s 0
f 2/1/1 24/2/1 23/3/1
f 5/4/2 3/5/2 1/6/2
f 6/7/3 42/8/3 5/4/3
f 7/9/2 41/10/2 6/7/2
f 8/11/3 40/12/3 7/9/3
f 9/13/2 39/14/2 8/11/2
f 10/15/3 38/16/3 9/13/3
f 11/17/2 37/18/2 10/15/2
f 12/19/3 36/20/3 11/17/3
f 13/21/2 35/22/2 12/19/2
f 14/23/3 34/24/3 13/21/3
f 15/25/2 33/26/2 14/23/2
f 16/27/3 32/28/3 15/25/3
f 17/29/2 31/30/2 16/27/2
f 18/31/3 30/32/3 17/29/3
f 19/33/2 29/34/2 18/31/2
f 20/35/3 28/36/3 19/33/3
f 21/37/2 27/38/2 20/35/2
f 22/39/3 26/40/3 21/37/3
f 23/3/2 25/41/2 22/39/2
f 2/1/1 4/42/1 24/2/1
f 5/4/2 42/8/2 3/5/2
f 6/7/3 41/10/3 42/8/3
f 7/9/2 40/12/2 41/10/2
f 8/11/3 39/14/3 40/12/3
f 9/13/2 38/16/2 39/14/2
f 10/15/3 37/18/3 38/16/3
f 11/17/2 36/20/2 37/18/2
f 12/19/3 35/22/3 36/20/3
f 13/21/2 34/24/2 35/22/2
f 14/23/3 33/26/3 34/24/3
f 15/25/2 32/28/2 33/26/2
f 16/27/3 31/30/3 32/28/3
f 17/29/2 30/32/2 31/30/2
f 18/31/3 29/34/3 30/32/3
f 19/33/2 28/36/2 29/34/2
f 20/35/3 27/38/3 28/36/3
f 21/37/2 26/40/2 27/38/2
f 22/39/3 25/41/3 26/40/3
f 23/3/2 24/2/2 25/41/2
