# Blender 4.3.2
# www.blender.org
mtllib palco.mtl
o palco
v 9.941992 0.000000 10.629085
v 9.941992 2.000000 10.629085
v 9.941992 0.000000 -2.663986
v 9.941992 2.000000 -2.663986
v 0.000000 0.000000 -2.663986
v 0.000000 2.000000 -2.663986
v 0.000000 0.000000 10.629085
v 0.000000 2.000000 10.629085
v -9.941992 0.000000 10.629085
v -9.941992 2.000000 10.629085
v -9.941992 0.000000 -2.663986
v -9.941992 2.000000 -2.663986
vn -0.0000 -0.0000 -1.0000
vn 1.0000 -0.0000 -0.0000
vn -0.0000 -1.0000 -0.0000
vn -0.0000 1.0000 -0.0000
vn -0.0000 -0.0000 1.0000
vn -1.0000 -0.0000 -0.0000
vt 0.625000 0.375000
vt 0.375000 0.500000
vt 0.375000 0.375000
vt 0.625000 0.500000
vt 0.375000 0.750000
vt 0.250000 0.750000
vt 0.250000 0.500000
vt 0.750000 0.500000
vt 0.625000 0.750000
vt 0.375000 0.875000
vt 0.750000 0.750000
vt 0.625000 0.875000
s 0
f 6/1/1 3/2/1 5/3/1
f 4/4/2 1/5/2 3/2/2
f 3/2/3 7/6/3 5/7/3
f 6/8/4 2/9/4 4/4/4
f 2/9/5 7/10/5 1/5/5
f 11/2/1 6/1/1 5/3/1
f 9/5/6 12/4/6 11/2/6
f 7/6/3 11/2/3 5/7/3
f 10/9/4 6/8/4 12/4/4
f 7/10/5 10/9/5 9/5/5
f 6/1/1 4/4/1 3/2/1
f 4/4/2 2/9/2 1/5/2
f 3/2/3 1/5/3 7/6/3
f 6/8/4 8/11/4 2/9/4
f 2/9/5 8/12/5 7/10/5
f 11/2/1 12/4/1 6/1/1
f 9/5/6 10/9/6 12/4/6
f 7/6/3 9/5/3 11/2/3
f 10/9/4 8/11/4 6/8/4
f 7/10/5 8/12/5 10/9/5
