# File produced by Open Asset Import Library (http://www.assimp.sf.net)
# (assimp v4.1.0)

mtllib 5o35qc5stbu6.mtl

# 64 vertex positions
v  0 0.4000000059604645 -1.080000042915344
v  0.009754999540746212 -0.4000000059604645 -1.079038977622986
v  0 -0.4000000059604645 -1.080000042915344
v  0.009754999540746212 0.4000000059604645 -1.079038977622986
v  0.01913399994373322 -0.4000000059604645 -1.076194047927856
v  0.01913399994373322 0.4000000059604645 -1.076194047927856
v  0.02777899987995625 -0.4000000059604645 -1.07157301902771
v  0.02777899987995625 0.4000000059604645 -1.07157301902771
v  0.03535500168800354 -0.4000000059604645 -1.065355062484741
v  0.03535500168800354 0.4000000059604645 -1.065355062484741
v  0.04157299920916557 -0.4000000059604645 -1.057778000831604
v  0.04157299920916557 0.4000000059604645 -1.057778000831604
v  0.04619399830698967 -0.4000000059604645 -1.049134016036987
v  0.04619399830698967 0.4000000059604645 -1.049134016036987
v  0.04903899878263474 -0.4000000059604645 -1.039754986763
v  0.04903899878263474 0.4000000059604645 -1.039754986763
v  0.05000000074505806 -0.4000000059604645 -1.029999971389771
v  0.05000000074505806 0.4000000059604645 -1.029999971389771
v  0.04903899878263474 -0.4000000059604645 -1.020244956016541
v  0.04903899878263474 0.4000000059604645 -1.020244956016541
v  0.04619399830698967 -0.4000000059604645 -1.010866045951843
v  0.04619399830698967 0.4000000059604645 -1.010866045951843
v  0.04157299920916557 -0.4000000059604645 -1.002220988273621
v  0.04157299920916557 0.4000000059604645 -1.002220988273621
v  0.03535500168800354 -0.4000000059604645 -0.9946449995040894
v  0.03535500168800354 0.4000000059604645 -0.9946449995040894
v  0.02777899987995625 -0.4000000059604645 -0.9884269833564758
v  0.02777899987995625 0.4000000059604645 -0.9884269833564758
v  0.01913399994373322 -0.4000000059604645 -0.9838060140609741
v  0.01913399994373322 0.4000000059604645 -0.9838060140609741
v  0.009754999540746212 -0.4000000059604645 -0.9809610247612
v  0.009754999540746212 0.4000000059604645 -0.9809610247612
v  0 -0.4000000059604645 -0.9800000190734863
v  0 0.4000000059604645 -0.9800000190734863
v  -0.009754999540746212 -0.4000000059604645 -0.9809610247612
v  -0.009754999540746212 0.4000000059604645 -0.9809610247612
v  -0.01913399994373322 -0.4000000059604645 -0.9838060140609741
v  -0.01913399994373322 0.4000000059604645 -0.9838060140609741
v  -0.02777899987995625 -0.4000000059604645 -0.9884269833564758
v  -0.02777899987995625 0.4000000059604645 -0.9884269833564758
v  -0.03535500168800354 -0.4000000059604645 -0.9946449995040894
v  -0.03535500168800354 0.4000000059604645 -0.9946449995040894
v  -0.04157299920916557 -0.4000000059604645 -1.002220988273621
v  -0.04157299920916557 0.4000000059604645 -1.002220988273621
v  -0.04619399830698967 -0.4000000059604645 -1.010866045951843
v  -0.04619399830698967 0.4000000059604645 -1.010866045951843
v  -0.04903899878263474 -0.4000000059604645 -1.020244956016541
v  -0.04903899878263474 0.4000000059604645 -1.020244956016541
v  -0.05000000074505806 -0.4000000059604645 -1.029999971389771
v  -0.05000000074505806 0.4000000059604645 -1.029999971389771
v  -0.04903899878263474 -0.4000000059604645 -1.039754986763
v  -0.04903899878263474 0.4000000059604645 -1.039754986763
v  -0.04619399830698967 -0.4000000059604645 -1.049134016036987
v  -0.04619399830698967 0.4000000059604645 -1.049134016036987
v  -0.04157299920916557 -0.4000000059604645 -1.057778000831604
v  -0.04157299920916557 0.4000000059604645 -1.057778000831604
v  -0.03535500168800354 -0.4000000059604645 -1.065355062484741
v  -0.03535500168800354 0.4000000059604645 -1.065355062484741
v  -0.02777899987995625 -0.4000000059604645 -1.07157301902771
v  -0.02777899987995625 0.4000000059604645 -1.07157301902771
v  -0.01913399994373322 -0.4000000059604645 -1.076194047927856
v  -0.01913399994373322 0.4000000059604645 -1.076194047927856
v  -0.009754999540746212 -0.4000000059604645 -1.079038977622986
v  -0.009754999540746212 0.4000000059604645 -1.079038977622986

# 130 UV coordinates
vt 1 1 0
vt 0.96875 0.5 0
vt 1 0.5 0
vt 0.96875 1 0
vt 0.9375 0.5 0
vt 0.9375 1 0
vt 0.90625 0.5 0
vt 0.90625 1 0
vt 0.875 0.5 0
vt 0.875 1 0
vt 0.84375 0.5 0
vt 0.84375 1 0
vt 0.8125 0.5 0
vt 0.8125 1 0
vt 0.78125 0.5 0
vt 0.78125 1 0
vt 0.75 0.5 0
vt 0.75 1 0
vt 0.71875 0.5 0
vt 0.71875 1 0
vt 0.6875 0.5 0
vt 0.6875 1 0
vt 0.65625 0.5 0
vt 0.65625 1 0
vt 0.625 0.5 0
vt 0.625 1 0
vt 0.59375 0.5 0
vt 0.59375 1 0
vt 0.5625 0.5 0
vt 0.5625 1 0
vt 0.53125 0.5 0
vt 0.53125 1 0
vt 0.5 0.5 0
vt 0.5 1 0
vt 0.46875 0.5 0
vt 0.46875 1 0
vt 0.4375 0.5 0
vt 0.4375 1 0
vt 0.40625 0.5 0
vt 0.40625 1 0
vt 0.375 0.5 0
vt 0.375 1 0
vt 0.34375 0.5 0
vt 0.34375 1 0
vt 0.3125 0.5 0
vt 0.3125 1 0
vt 0.28125 0.5 0
vt 0.28125 1 0
vt 0.25 0.5 0
vt 0.25 1 0
vt 0.21875 0.5 0
vt 0.21875 1 0
vt 0.1875 0.5 0
vt 0.1875 1 0
vt 0.15625 0.5 0
vt 0.15625 1 0
vt 0.125 0.5 0
vt 0.125 1 0
vt 0.09375 0.5 0
vt 0.09375 1 0
vt 0.0625 0.5 0
vt 0.1581559926271439 0.02826900035142899 0
vt 0.4717310070991516 0.1581559926271439 0
vt 0.3418439924716949 0.4717310070991516 0
vt 0.0625 1 0
vt 0.03125 0.5 0
vt 0.03125 1 0
vt 0 0.5 0
vt 0.7968220114707947 0.01461200043559074 0
vt 0.5146120190620422 0.2031780034303665 0
vt 0.7031779885292053 0.4853880107402802 0
vt 0.2968220114707947 0.4853880107402802 0
vt 0.25 0.4900000095367432 0
vt 0.2031780034303665 0.4853880107402802 0
vt 0.1581559926271439 0.4717310070991516 0
vt 0.1166630014777184 0.4495530128479004 0
vt 0.08029399812221527 0.4197059869766235 0
vt 0.0504469983279705 0.383336991071701 0
vt 0.02826900035142899 0.3418439924716949 0
vt 0.01461200043559074 0.2968220114707947 0
vt 0.009999999776482582 0.25 0
vt 0.01461200043559074 0.2031780034303665 0
vt 0.02826900035142899 0.1581559926271439 0
vt 0.0504469983279705 0.1166630014777184 0
vt 0.08029399812221527 0.08029399812221527 0
vt 0.1166630014777184 0.0504469983279705 0
vt 0.2031780034303665 0.01461200043559074 0
vt 0.25 0.009999999776482582 0
vt 0.2968220114707947 0.01461200043559074 0
vt 0.3418439924716949 0.02826900035142899 0
vt 0.383336991071701 0.0504469983279705 0
vt 0.4197059869766235 0.08029399812221527 0
vt 0.4495530128479004 0.1166630014777184 0
vt 0.4853880107402802 0.2031780034303665 0
vt 0.4900000095367432 0.25 0
vt 0.4853880107402802 0.2968220114707947 0
vt 0.4717310070991516 0.3418439924716949 0
vt 0.4495530128479004 0.383336991071701 0
vt 0.4197059869766235 0.4197059869766235 0
vt 0.383336991071701 0.4495530128479004 0
vt 0 1 0
vt 0.75 0.4900000095367432 0
vt 0.7968220114707947 0.4853880107402802 0
vt 0.8418440222740173 0.4717310070991516 0
vt 0.8833370208740234 0.4495530128479004 0
vt 0.9197059869766235 0.4197059869766235 0
vt 0.9495530128479004 0.383336991071701 0
vt 0.9717310070991516 0.3418439924716949 0
vt 0.9853879809379578 0.2968220114707947 0
vt 0.9900000095367432 0.25 0
vt 0.9853879809379578 0.2031780034303665 0
vt 0.9717310070991516 0.1581559926271439 0
vt 0.9495530128479004 0.1166630014777184 0
vt 0.9197059869766235 0.08029399812221527 0
vt 0.8833370208740234 0.0504469983279705 0
vt 0.8418440222740173 0.02826900035142899 0
vt 0.75 0.009999999776482582 0
vt 0.7031779885292053 0.01461200043559074 0
vt 0.6581559777259827 0.02826900035142899 0
vt 0.6166629791259766 0.0504469983279705 0
vt 0.5802940130233765 0.08029399812221527 0
vt 0.5504469871520996 0.1166630014777184 0
vt 0.5282689929008484 0.1581559926271439 0
vt 0.5099999904632568 0.25 0
vt 0.5146120190620422 0.2968220114707947 0
vt 0.5282689929008484 0.3418439924716949 0
vt 0.5504469871520996 0.383336991071701 0
vt 0.5802940130233765 0.4197059869766235 0
vt 0.6166629791259766 0.4495530128479004 0
vt 0.6581559777259827 0.4717310070991516 0

# 64 vertex normals
vn 0.03282139450311661 0.00781737919896841 -0.9994306564331055
vn 0.1628062725067139 -0.007819069549441338 -0.9866270422935486
vn -0.032822385430336 -0.0008004559203982353 -0.9994608759880066
vn 0.2271612584590912 0.0008000110392458737 -0.9738568663597107
vn 0.3521640598773956 -0.0008003361290320754 -0.9359379410743713
vn 0.3648389875888824 0.467851996421814 -0.8049888014793396
vn 0.5271091461181641 -0.05814454331994057 -0.8478061556816101
vn 0.582573413848877 0.0008002988179214299 -0.8127776384353638
vn 0.6835517883300781 -0.000800116453319788 -0.7299016714096069
vn 0.7299293279647827 0.007817625068128109 -0.6834779381752014
vn 0.8127650618553162 -0.007816859520971775 -0.5825391411781311
vn 0.8492336869239807 0.0007998241344466805 -0.5280166268348694
vn 0.9108077883720398 -0.0008004340343177319 -0.4128298461437225
vn 0.9343492984771729 0.05814916267991066 -0.351582407951355
vn 0.9286172389984131 -0.3012470602989197 -0.2166106700897217
vn 0.9866572618484497 0.0008000310626812279 -0.1628090143203735
vn 0.9994609355926514 -0.0008004033006727695 -0.03282017633318901
vn 0.999430775642395 0.00781749002635479 0.03281918540596962
vn 0.9866273403167725 -0.007819018326699734 0.1628047525882721
vn 0.9738559722900391 0.0008000754751265049 0.227165013551712
vn 0.9359361529350281 -0.0008002754766494036 0.3521687984466553
vn 0.8685131669044495 0.3012318909168243 0.3936296105384827
vn 0.8478073477745056 -0.05814485996961594 0.5271070599555969
vn 0.8127771615982056 0.000800339737907052 0.5825740694999695
vn 0.7299181222915649 -0.0007997716311365366 0.6835340857505798
vn 0.6835137605667114 0.007818561978638172 0.7298957705497742
vn 0.582557201385498 -0.007817532867193222 0.8127521276473999
vn 0.5280007123947144 0.0008002974209375679 0.8492435216903687
vn 0.412802129983902 -0.0008002487011253834 0.9108203649520874
vn 0.3515700995922089 0.05814799293875694 0.9343539476394653
vn 0.2007658928632736 -0.4678730964660645 0.8606902956962585
vn 0.1628092378377914 0.0008000259986147285 0.9866572618484497
vn 0.03282035514712334 -0.000800406327471137 0.9994609355926514
vn -0.03281936421990395 0.007817476056516171 0.999430775642395
vn -0.1628043055534363 -0.007818977348506451 0.9866273403167725
vn -0.2271631807088852 0.0008000594098120928 0.9738563895225525
vn -0.3521658480167389 -0.0008002897375263274 0.9359372854232788
vn -0.3648373782634735 0.4678523242473602 0.8049893379211426
vn -0.5271075963973999 -0.05814498662948608 0.8478070497512817
vn -0.5825747847557068 0.0008003391558304429 0.8127766847610474
vn -0.6835343837738037 -0.0007997713983058929 0.7299178242683411
vn -0.729896068572998 0.007818568497896194 0.6835134625434875
vn -0.8127526044845581 -0.007817459292709827 0.5825564861297607
vn -0.8492438793182373 0.0008002956747077405 0.5280001759529114
vn -0.9108196496963501 -0.0008002299000509083 0.4128038287162781
vn -0.9343528747558594 0.05814812332391739 0.3515730500221252
vn -0.9286165237426758 -0.3012483716011047 0.2166122943162918
vn -0.9866571426391602 0.0008000391535460949 0.1628096699714661
vn -0.9994609355926514 -0.0008004033006727695 0.03282017633318901
vn -0.999430775642395 0.007817489095032215 -0.03281918540596962
vn -0.986627459526062 -0.007819140329957008 -0.1628041118383408
vn -0.9738563895225525 0.0008000641828402877 -0.2271632105112076
vn -0.9359326362609863 -0.000800450739916414 -0.3521781861782074
vn -0.8684970140457153 0.3012487292289734 -0.3936522006988525
vn -0.8477970957756042 -0.05814634263515472 -0.5271233916282654
vn -0.8127896189689636 0.0007998195942491293 -0.5825567841529846
vn -0.7299513816833496 -0.0008000929374247789 -0.6834986209869385
vn -0.6835310459136963 0.007817851379513741 -0.7298794984817505
vn -0.5825558304786682 -0.007818730548024178 -0.8127530813217163
vn -0.5280022025108337 0.0008002552203834057 -0.849242627620697
vn -0.4128038585186005 -0.0008002936956472695 -0.9108195900917053
vn -0.3515683114528656 0.05814795196056366 -0.9343546032905579
vn -0.2007642239332199 -0.4678728580474854 -0.8606908321380615
vn -0.1628111898899078 0.0007999769877642393 -0.9866568446159363

# Mesh 'Cylinder.003' with 124 faces
g Cylinder.003
usemtl DefaultMaterial
f  1/1/1 2/2/2 3/3/3
f  4/4/4 5/5/5 2/2/2
f  6/6/6 7/7/7 5/5/5
f  8/8/8 9/9/9 7/7/7
f  10/10/10 11/11/11 9/9/9
f  12/12/12 13/13/13 11/11/11
f  14/14/14 15/15/15 13/13/13
f  16/16/16 17/17/17 15/15/15
f  18/18/18 19/19/19 17/17/17
f  20/20/20 21/21/21 19/19/19
f  22/22/22 23/23/23 21/21/21
f  24/24/24 25/25/25 23/23/23
f  26/26/26 27/27/27 25/25/25
f  28/28/28 29/29/29 27/27/27
f  30/30/30 31/31/31 29/29/29
f  32/32/32 33/33/33 31/31/31
f  34/34/34 35/35/35 33/33/33
f  36/36/36 37/37/37 35/35/35
f  38/38/38 39/39/39 37/37/37
f  40/40/40 41/41/41 39/39/39
f  42/42/42 43/43/43 41/41/41
f  44/44/44 45/45/45 43/43/43
f  46/46/46 47/47/47 45/45/45
f  48/48/48 49/49/49 47/47/47
f  50/50/50 51/51/51 49/49/49
f  52/52/52 53/53/53 51/51/51
f  54/54/54 55/55/55 53/53/53
f  56/56/56 57/57/57 55/55/55
f  58/58/58 59/59/59 57/57/57
f  60/60/60 61/61/61 59/59/59
f  38/62/38 22/63/22 6/64/6
f  62/65/62 63/66/63 61/61/61
f  64/67/64 3/68/3 63/66/63
f  31/69/31 47/70/47 63/71/63
f  1/1/1 4/4/4 2/2/2
f  4/4/4 6/6/6 5/5/5
f  6/6/6 8/8/8 7/7/7
f  8/8/8 10/10/10 9/9/9
f  10/10/10 12/12/12 11/11/11
f  12/12/12 14/14/14 13/13/13
f  14/14/14 16/16/16 15/15/15
f  16/16/16 18/18/18 17/17/17
f  18/18/18 20/20/20 19/19/19
f  20/20/20 22/22/22 21/21/21
f  22/22/22 24/24/24 23/23/23
f  24/24/24 26/26/26 25/25/25
f  26/26/26 28/28/28 27/27/27
f  28/28/28 30/30/30 29/29/29
f  30/30/30 32/32/32 31/31/31
f  32/32/32 34/34/34 33/33/33
f  34/34/34 36/36/36 35/35/35
f  36/36/36 38/38/38 37/37/37
f  38/38/38 40/40/40 39/39/39
f  40/40/40 42/42/42 41/41/41
f  42/42/42 44/44/44 43/43/43
f  44/44/44 46/46/46 45/45/45
f  46/46/46 48/48/48 47/47/47
f  48/48/48 50/50/50 49/49/49
f  50/50/50 52/52/52 51/51/51
f  52/52/52 54/54/54 53/53/53
f  54/54/54 56/56/56 55/55/55
f  56/56/56 58/58/58 57/57/57
f  58/58/58 60/60/60 59/59/59
f  60/60/60 62/65/62 61/61/61
f  6/64/6 4/72/4 1/73/1
f  1/73/1 64/74/64 62/75/62
f  62/75/62 60/76/60 58/77/58
f  58/77/58 56/78/56 54/79/54
f  54/79/54 52/80/52 50/81/50
f  50/81/50 48/82/48 46/83/46
f  46/83/46 44/84/44 42/85/42
f  42/85/42 40/86/40 38/62/38
f  38/62/38 36/87/36 34/88/34
f  34/88/34 32/89/32 30/90/30
f  30/90/30 28/91/28 26/92/26
f  26/92/26 24/93/24 22/63/22
f  22/63/22 20/94/20 18/95/18
f  18/95/18 16/96/16 14/97/14
f  14/97/14 12/98/12 10/99/10
f  10/99/10 8/100/8 6/64/6
f  6/64/6 1/73/1 62/75/62
f  62/75/62 58/77/58 54/79/54
f  54/79/54 50/81/50 46/83/46
f  46/83/46 42/85/42 38/62/38
f  38/62/38 34/88/34 30/90/30
f  30/90/30 26/92/26 22/63/22
f  22/63/22 18/95/18 14/97/14
f  14/97/14 10/99/10 6/64/6
f  6/64/6 62/75/62 54/79/54
f  54/79/54 46/83/46 38/62/38
f  38/62/38 30/90/30 22/63/22
f  22/63/22 14/97/14 6/64/6
f  6/64/6 54/79/54 38/62/38
f  62/65/62 64/67/64 63/66/63
f  64/67/64 1/101/1 3/68/3
f  63/71/63 3/102/3 2/103/2
f  2/103/2 5/104/5 7/105/7
f  7/105/7 9/106/9 11/107/11
f  11/107/11 13/108/13 15/109/15
f  15/109/15 17/110/17 19/111/19
f  19/111/19 21/112/21 23/113/23
f  23/113/23 25/114/25 27/115/27
f  27/115/27 29/116/29 31/69/31
f  31/69/31 33/117/33 35/118/35
f  35/118/35 37/119/37 39/120/39
f  39/120/39 41/121/41 43/122/43
f  43/122/43 45/123/45 47/70/47
f  47/70/47 49/124/49 51/125/51
f  51/125/51 53/126/53 55/127/55
f  55/127/55 57/128/57 59/129/59
f  59/129/59 61/130/61 63/71/63
f  63/71/63 2/103/2 7/105/7
f  7/105/7 11/107/11 15/109/15
f  15/109/15 19/111/19 23/113/23
f  23/113/23 27/115/27 31/69/31
f  31/69/31 35/118/35 39/120/39
f  39/120/39 43/122/43 47/70/47
f  47/70/47 51/125/51 55/127/55
f  55/127/55 59/129/59 63/71/63
f  63/71/63 7/105/7 15/109/15
f  15/109/15 23/113/23 31/69/31
f  31/69/31 39/120/39 47/70/47
f  47/70/47 55/127/55 63/71/63
f  63/71/63 15/109/15 31/69/31

